# xmcd CD database file
#
# Track frame offsets:
#	150
#	13680
#	26810
#	45621
#	57724
#	71610
#	85644
#	98762
#	110569
#	121173
#	133364
#	149551
#	164289
#	175199
#	192454
#	203961
#	220042
#	235289
#	246465
#	261857
#
# Disc length: 3695 seconds
#
# Revision: 9
# Processed by: cddbd v1.5.2PL0 Copyright (c) Steve Scherf et al.
# Submitted via: CDex 1.74
#
DISCID=320e6d14
DTITLE=Dolly Parton - The Very Best Of Dolly Parton
DYEAR=2007
DGENRE=Country
TTITLE0=9 To 5
TTITLE1=I Will Always Love You
TTITLE2=Islands In The Stream (with Kenny Rogers)
TTITLE3=Jolene
TTITLE4=Coat Of Many Colors
TTITLE5=My Tennessee Mountain Home
TTITLE6=Here You Come Again
TTITLE7=Baby I'm Burnin'
TTITLE8=Love Is Like A Butterfly
TTITLE9=The Bargain Store
TTITLE10=Potential New Boyfriend
TTITLE11=Everything's Beautiful (In It's Own Way) (with Willie Nelson)
TTITLE12=Silver Threads And Golden Needles (with Tammy Wynette and Loretta Lynn)
TTITLE13=To Know Him Is To Love Him (with Linda Ronstadt and Emmylou Harris)
TTITLE14=Why'd You Come In Here Lookin' Like That
TTITLE15=Romeo (with Billy Ray Cyrus, Tanya Tucker, Mary Chapin Carpenter, Kathy Mattea and Pam Tillis)
TTITLE16=Tennessee Homesick Blues
TTITLE17=Dumb Blonde
TTITLE18=Applejack
TTITLE19=Old Flames Can't Hold A Candle To You
EXTD=CDDBSort:parton_dolly,very_best_of_parton_dolly - Compilation: Sony Records 2007 YEAR: 2007
EXTT0=
EXTT1=
EXTT2=
EXTT3=
EXTT4=
EXTT5=
EXTT6=
EXTT7=
EXTT8=
EXTT9=
EXTT10=
EXTT11=
EXTT12=with Tammy Wynette and Loretta Lynn
EXTT13=Linda Ronstadt and Emmylou Harris
EXTT14=
EXTT15=with Billy Ray Cyrus and Tanya Tucker and Mary Chapin Carpenter and Kathy Mattea and Pam Tillis
EXTT16=
EXTT17=
EXTT18=
EXTT19=
PLAYORDER=
